<svg width="30" height="21" viewBox="0 0 30 21" fill="none" xmlns="http://www.w3.org/2000/svg">
<g filter="url(#filter0_d_3_3)">
<path d="M10.3857 5.99463H6.72949V8.47021H11.0205V10H4.8252V0.757812H11.0078V2.30029H6.72949V4.50293H10.3857V5.99463ZM13.7056 3.13184L13.7627 3.92529C14.2536 3.31169 14.9116 3.00488 15.7368 3.00488C16.4647 3.00488 17.0063 3.21859 17.3618 3.646C17.7173 4.0734 17.8993 4.7124 17.9077 5.56299V10H16.0732V5.60742C16.0732 5.2181 15.9886 4.93669 15.8193 4.76318C15.6501 4.58545 15.3687 4.49658 14.9751 4.49658C14.4588 4.49658 14.0716 4.71663 13.8135 5.15674V10H11.979V3.13184H13.7056ZM19.0376 6.51514C19.0376 5.46143 19.2873 4.61296 19.7866 3.96973C20.2902 3.3265 20.9673 3.00488 21.8179 3.00488C22.5711 3.00488 23.1572 3.26302 23.5762 3.7793L23.6523 3.13184H25.3154V9.77148C25.3154 10.3724 25.1779 10.895 24.9028 11.3394C24.632 11.7837 24.249 12.1222 23.7539 12.355C23.2588 12.5877 22.679 12.7041 22.0146 12.7041C21.5111 12.7041 21.0202 12.6025 20.542 12.3994C20.0638 12.2005 19.702 11.9424 19.4565 11.625L20.269 10.5078C20.7261 11.0199 21.2804 11.2759 21.9321 11.2759C22.4188 11.2759 22.7975 11.1447 23.0684 10.8823C23.3392 10.6242 23.4746 10.256 23.4746 9.77783V9.40967C23.0514 9.88786 22.495 10.127 21.8052 10.127C20.98 10.127 20.3114 9.80534 19.7993 9.16211C19.2915 8.51465 19.0376 7.65771 19.0376 6.59131V6.51514ZM20.8721 6.64844C20.8721 7.27051 20.9969 7.75928 21.2466 8.11475C21.4963 8.46598 21.839 8.6416 22.2749 8.6416C22.8335 8.6416 23.2334 8.43213 23.4746 8.01318V5.125C23.2292 4.70605 22.8335 4.49658 22.2876 4.49658C21.8475 4.49658 21.5005 4.67643 21.2466 5.03613C20.9969 5.39583 20.8721 5.93327 20.8721 6.64844Z" fill="currentColor"/>
</g>
<defs>
<filter id="filter0_d_3_3" x="0.825195" y="0.757812" width="28.4902" height="19.9463" filterUnits="userSpaceOnUse" color-interpolation-filters="sRGB">
<feFlood flood-opacity="0" result="BackgroundImageFix"/>
<feColorMatrix in="SourceAlpha" type="matrix" values="0 0 0 0 0 0 0 0 0 0 0 0 0 0 0 0 0 0 127 0" result="hardAlpha"/>
<feOffset dy="4"/>
<feGaussianBlur stdDeviation="2"/>
<feColorMatrix type="matrix" values="0 0 0 0 0 0 0 0 0 0 0 0 0 0 0 0 0 0 0.25 0"/>
<feBlend mode="normal" in2="BackgroundImageFix" result="effect1_dropShadow_3_3"/>
<feBlend mode="normal" in="SourceGraphic" in2="effect1_dropShadow_3_3" result="shape"/>
</filter>
</defs>
</svg>
