<svg width="30" height="21" viewBox="0 0 30 21" fill="none" xmlns="http://www.w3.org/2000/svg">
<g filter="url(#filter0_d_533_717)">
<path d="M6.875 6.74365V10H4.9707V0.757812H8.57617C9.27018 0.757812 9.87956 0.884766 10.4043 1.13867C10.9333 1.39258 11.3395 1.75439 11.623 2.22412C11.9066 2.68962 12.0483 3.2207 12.0483 3.81738C12.0483 4.72298 11.7373 5.43815 11.1152 5.96289C10.4974 6.4834 9.64046 6.74365 8.54443 6.74365H6.875ZM6.875 5.20117H8.57617C9.07975 5.20117 9.46273 5.08268 9.7251 4.8457C9.9917 4.60872 10.125 4.27018 10.125 3.83008C10.125 3.37728 9.9917 3.01123 9.7251 2.73193C9.4585 2.45264 9.09033 2.30876 8.62061 2.30029H6.875V5.20117ZM15.9077 7.40381L17.1772 3.13184H19.145L16.3838 11.0664L16.2314 11.4282C15.821 12.3254 15.1439 12.7739 14.2002 12.7739C13.9336 12.7739 13.6628 12.7337 13.3877 12.6533V11.2632L13.667 11.2695C14.014 11.2695 14.2721 11.2166 14.4414 11.1108C14.6149 11.005 14.7503 10.8294 14.8477 10.584L15.0635 10.019L12.6577 3.13184H14.6318L15.9077 7.40381ZM22.6362 8.64795C22.9748 8.64795 23.2498 8.55485 23.4614 8.36865C23.673 8.18245 23.783 7.9349 23.7915 7.62598H25.5117C25.5075 8.09147 25.3805 8.51888 25.1309 8.9082C24.8812 9.29329 24.5384 9.59375 24.1025 9.80957C23.6709 10.0212 23.1927 10.127 22.668 10.127C21.6862 10.127 20.9118 9.81592 20.3447 9.19385C19.7777 8.56755 19.4941 7.70426 19.4941 6.604V6.4834C19.4941 5.42546 19.7756 4.58122 20.3384 3.95068C20.9012 3.32015 21.6735 3.00488 22.6553 3.00488C23.5143 3.00488 24.202 3.25033 24.7183 3.74121C25.2388 4.22786 25.5033 4.87744 25.5117 5.68994H23.7915C23.783 5.33447 23.673 5.04671 23.4614 4.82666C23.2498 4.60238 22.9705 4.49023 22.6235 4.49023C22.1961 4.49023 21.8724 4.64681 21.6523 4.95996C21.4365 5.26888 21.3286 5.77246 21.3286 6.4707V6.66113C21.3286 7.36784 21.4365 7.87565 21.6523 8.18457C21.8682 8.49349 22.1961 8.64795 22.6362 8.64795Z" fill="currentColor"/>
</g>
<defs>
<filter id="filter0_d_533_717" x="0.970703" y="0.757812" width="28.541" height="20.0161" filterUnits="userSpaceOnUse" color-interpolation-filters="sRGB">
<feFlood flood-opacity="0" result="BackgroundImageFix"/>
<feColorMatrix in="SourceAlpha" type="matrix" values="0 0 0 0 0 0 0 0 0 0 0 0 0 0 0 0 0 0 127 0" result="hardAlpha"/>
<feOffset dy="4"/>
<feGaussianBlur stdDeviation="2"/>
<feColorMatrix type="matrix" values="0 0 0 0 0 0 0 0 0 0 0 0 0 0 0 0 0 0 0.25 0"/>
<feBlend mode="normal" in2="BackgroundImageFix" result="effect1_dropShadow_533_717"/>
<feBlend mode="normal" in="SourceGraphic" in2="effect1_dropShadow_533_717" result="shape"/>
</filter>
</defs>
</svg>
